<svg width="421" height="445" viewBox="0 0 421 445" fill="none" xmlns="http://www.w3.org/2000/svg">
<path d="M411.265 178.298C405.075 171.159 397.036 167.591 387.139 167.591H186.148L269.8 83.937C277.034 76.708 280.648 68.046 280.648 57.956C280.648 47.871 277.035 39.209 269.8 31.977L248.387 10.848C241.156 3.619 232.59 0 222.693 0C212.604 0 203.941 3.615 196.712 10.848L10.8481 196.428C3.80506 203.851 0.284058 212.512 0.284058 222.409C0.284058 232.498 3.80506 241.063 10.8481 248.102L196.712 434.254C204.134 441.297 212.795 444.821 222.693 444.821C232.778 444.821 241.343 441.297 248.386 434.254L269.799 412.561C277.033 405.71 280.647 397.141 280.647 386.868C280.647 376.584 277.034 368.015 269.799 361.168L186.147 277.229H387.138C397.034 277.229 405.074 273.66 411.264 266.522C417.448 259.383 420.538 250.773 420.538 240.684V204.139C420.542 194.05 417.448 185.437 411.265 178.298Z" fill="#FF7B5B"/>
</svg>
