<svg width="512" height="450" viewBox="0 0 512 450" fill="none" xmlns="http://www.w3.org/2000/svg">
<path d="M0 0H60V150H0V0Z" fill="#FF7B5B"/>
<path d="M452 300H512V450H452V300Z" fill="#FF7B5B"/>
<path d="M226 150H286V300H226V150Z" fill="#FF7B5B"/>
<path d="M45 270H196V180H45C20.186 180 0 200.186 0 225C0 249.814 20.186 270 45 270Z" fill="#FF7B5B"/>
<path d="M467 180H316V270H467C491.814 270 512 249.814 512 225C512 200.186 491.814 180 467 180Z" fill="#FF7B5B"/>
<path d="M467 30H90V120H467C491.814 120 512 99.814 512 75C512 50.186 491.814 30 467 30Z" fill="#FF7B5B"/>
<path d="M45 420H422V330H45C20.186 330 0 350.186 0 375C0 399.814 20.186 420 45 420Z" fill="#FF7B5B"/>
</svg>
