<svg width="512" height="410" viewBox="0 0 512 410" fill="none" xmlns="http://www.w3.org/2000/svg">
<path d="M380.12 8.03613C320.351 8.03613 270.457 50.2846 258.653 106.545C258.045 109.444 253.95 109.446 253.341 106.545C241.536 50.2846 191.642 8.03613 131.873 8.03613C17.7689 8.03613 -35.8804 149.044 49.3664 224.891L242.703 396.909C250.283 403.653 261.712 403.653 269.291 396.909L462.628 224.891C547.875 149.044 494.225 8.03613 380.12 8.03613Z" fill="#F3F6DB"/>
<path d="M380.12 8.03528C373.208 8.03528 366.431 8.60727 359.827 9.69326C459.202 25.684 501.188 153.859 421.353 224.89L235.36 390.375L242.703 396.908C250.283 403.652 261.711 403.652 269.291 396.908L462.628 224.89C547.875 149.043 494.225 8.03528 380.12 8.03528V8.03528Z" fill="#F3F6DB"/>
<path d="M380.12 8.03601C320.351 8.03601 270.457 50.2844 258.653 106.545C258.045 109.444 253.95 109.446 253.341 106.545C241.536 50.2844 191.642 8.03601 131.873 8.03601C17.7689 8.03601 -35.8804 149.044 49.3664 224.891L242.703 396.909C250.283 403.653 261.712 403.653 269.291 396.909L462.628 224.891C547.875 149.044 494.225 8.03601 380.12 8.03601Z" fill="#F3F6DB"/>
<path d="M380.12 8.03528C373.208 8.03528 366.431 8.60727 359.827 9.69326C459.202 25.684 501.188 153.859 421.353 224.89L235.36 390.375L242.703 396.908C250.283 403.652 261.711 403.652 269.291 396.908L462.628 224.89C547.875 149.043 494.225 8.03528 380.12 8.03528V8.03528Z" fill="#F3F6DB"/>
<path d="M237.717 402.512C33.4045 220.728 40.3175 226.738 40.3175 226.738C14.3188 201.754 0 168.538 0 133.206C0 86.7268 24.6297 41.5055 65.9051 17.7378C69.494 15.6708 74.079 16.9048 76.147 20.4948C78.2139 24.0837 76.9799 28.6696 73.39 30.7366C37.3735 51.4763 14.9998 90.7398 14.9998 133.206C14.9998 164.418 27.6826 193.793 50.7103 215.922C50.7103 215.922 43.8294 209.926 247.687 391.306C249.979 393.345 252.929 394.467 255.995 394.467C259.061 394.467 262.013 393.344 264.305 391.305L326.222 336.216C329.317 333.463 334.056 333.739 336.809 336.834C339.562 339.929 339.286 344.669 336.191 347.422L274.275 402.512C263.844 411.792 248.128 411.774 237.717 402.512V402.512ZM357.358 326.055C355.291 326.055 353.234 325.206 351.752 323.54C348.999 320.445 349.275 315.705 352.37 312.952L457.642 219.288C479.456 199.879 492.773 174.92 496.154 147.108C496.155 147.102 496.155 147.096 496.156 147.09C503.793 84.1639 458.242 15.5348 380.12 15.5348C325.242 15.5348 277.244 54.4573 265.992 108.084C264.987 112.874 260.876 116.218 255.995 116.218C251.115 116.218 247.005 112.872 246 108.083C234.748 54.4573 186.75 15.5348 131.873 15.5348C122.24 15.5348 112.791 16.6108 103.79 18.7328C99.7566 19.6848 95.7197 17.1848 94.7687 13.1539C93.8177 9.12192 96.3157 5.08397 100.348 4.13298C110.475 1.74502 121.082 0.535034 131.872 0.535034C187.57 0.535034 237.334 35.6435 255.995 88.3258C274.705 35.5095 324.562 0.535034 380.119 0.535034C465.023 0.535034 520.001 75.094 511.046 148.895C511.046 148.902 511.045 148.91 511.044 148.917C507.215 180.411 492.197 208.619 467.612 230.494L362.34 324.158C360.911 325.43 359.131 326.055 357.358 326.055V326.055Z" fill="#FA5128"/>
</svg>
